<svg width="383" height="240" viewBox="0 0 383 240" fill="none" xmlns="http://www.w3.org/2000/svg">
<g filter="url(#filter0_i_0_1)">
<path d="M180 52.5V161H133V88L180 52.5Z" fill="white"/>
<path d="M198.5 161H212.5V101H214.5V98H212.5V77H216V67.5H217V55.5H219V67.5H221V77H225V98H222V101H225V161H250V44.5L198 0L198.5 161Z" fill="white"/>
</g>
<g filter="url(#filter1_i_0_1)">
<path d="M32.152 202L41.048 178.96H43.352L34.68 202H32.152ZM50.456 202L41.784 178.96H44.248L53.144 202H50.456ZM36.568 192.688H48.6V194.992H36.568V192.688ZM63.4395 202V178.96H71.9515C73.5942 178.96 74.9915 179.227 76.1435 179.76C77.2955 180.293 78.1702 181.04 78.7675 182C79.3862 182.939 79.6955 184.059 79.6955 185.36C79.6955 186.661 79.3862 187.803 78.7675 188.784C78.1702 189.744 77.2955 190.501 76.1435 191.056C74.9915 191.589 73.5942 191.856 71.9515 191.856H65.3595V189.552H71.8555C73.5622 189.552 74.8528 189.179 75.7275 188.432C76.6235 187.685 77.0715 186.661 77.0715 185.36C77.0715 184.08 76.6342 183.077 75.7595 182.352C74.8848 181.627 73.5835 181.264 71.8555 181.264H66.0635V202H63.4395ZM76.9435 202L64.6875 190.576H68.2715L80.9115 202H76.9435ZM100.606 202.32C99.0271 202.32 97.5658 202.032 96.2218 201.456C94.8991 200.859 93.7471 200.037 92.7658 198.992C91.7844 197.925 91.0271 196.677 90.4938 195.248C89.9604 193.797 89.6938 192.208 89.6938 190.48C89.6938 188.752 89.9604 187.173 90.4938 185.744C91.0271 184.293 91.7738 183.045 92.7338 182C93.7151 180.933 94.8671 180.112 96.1898 179.536C97.5338 178.939 98.9951 178.64 100.574 178.64C102.302 178.64 103.848 178.992 105.214 179.696C106.6 180.4 107.731 181.392 108.606 182.672C109.502 183.952 110.056 185.445 110.27 187.152H107.646C107.39 185.253 106.632 183.76 105.374 182.672C104.136 181.563 102.547 181.008 100.606 181.008C98.9631 181.008 97.5231 181.413 96.2858 182.224C95.0484 183.013 94.0884 184.123 93.4058 185.552C92.7231 186.96 92.3818 188.603 92.3818 190.48C92.3818 192.357 92.7231 194.011 93.4058 195.44C94.0884 196.848 95.0484 197.957 96.2858 198.768C97.5231 199.557 98.9524 199.952 100.574 199.952C102.558 199.952 104.179 199.397 105.438 198.288C106.718 197.179 107.475 195.685 107.71 193.808H110.334C110.12 195.515 109.566 197.008 108.67 198.288C107.795 199.568 106.664 200.56 105.278 201.264C103.912 201.968 102.355 202.32 100.606 202.32ZM120.971 202V178.96H123.595V202H120.971ZM136.395 202V178.96H139.019V202H136.395ZM122.315 188.848H137.547V191.152H122.315V188.848ZM150.94 202V178.96H153.564V202H150.94ZM171.775 202V181.264H163.871V178.96H182.303V181.264H174.399V202H171.775ZM192.627 202V178.96H195.251V202H192.627ZM193.971 202V199.696H208.051V202H193.971ZM193.971 191.152V188.848H206.899V191.152H193.971ZM193.971 181.264V178.96H207.795V181.264H193.971ZM229.2 202.32C227.621 202.32 226.16 202.032 224.816 201.456C223.493 200.859 222.341 200.037 221.36 198.992C220.378 197.925 219.621 196.677 219.088 195.248C218.554 193.797 218.288 192.208 218.288 190.48C218.288 188.752 218.554 187.173 219.088 185.744C219.621 184.293 220.368 183.045 221.328 182C222.309 180.933 223.461 180.112 224.784 179.536C226.128 178.939 227.589 178.64 229.168 178.64C230.896 178.64 232.442 178.992 233.808 179.696C235.194 180.4 236.325 181.392 237.2 182.672C238.096 183.952 238.65 185.445 238.864 187.152H236.24C235.984 185.253 235.226 183.76 233.968 182.672C232.73 181.563 231.141 181.008 229.2 181.008C227.557 181.008 226.117 181.413 224.88 182.224C223.642 183.013 222.682 184.123 222 185.552C221.317 186.96 220.976 188.603 220.976 190.48C220.976 192.357 221.317 194.011 222 195.44C222.682 196.848 223.642 197.957 224.88 198.768C226.117 199.557 227.546 199.952 229.168 199.952C231.152 199.952 232.773 199.397 234.032 198.288C235.312 197.179 236.069 195.685 236.304 193.808H238.928C238.714 195.515 238.16 197.008 237.264 198.288C236.389 199.568 235.258 200.56 233.872 201.264C232.506 201.968 230.949 202.32 229.2 202.32ZM255.869 202V181.264H247.965V178.96H266.397V181.264H258.493V202H255.869ZM285.329 202.32C282.555 202.32 280.39 201.477 278.833 199.792C277.297 198.085 276.529 195.707 276.529 192.656V178.96H279.153V192.784C279.153 195.088 279.686 196.859 280.753 198.096C281.819 199.333 283.345 199.952 285.329 199.952C287.355 199.952 288.902 199.344 289.969 198.128C291.035 196.891 291.569 195.109 291.569 192.784V178.96H294.193V192.688C294.193 195.717 293.414 198.085 291.857 199.792C290.299 201.477 288.123 202.32 285.329 202.32ZM305.908 202V178.96H314.42C316.063 178.96 317.46 179.227 318.612 179.76C319.764 180.293 320.639 181.04 321.236 182C321.855 182.939 322.164 184.059 322.164 185.36C322.164 186.661 321.855 187.803 321.236 188.784C320.639 189.744 319.764 190.501 318.612 191.056C317.46 191.589 316.063 191.856 314.42 191.856H307.828V189.552H314.324C316.031 189.552 317.322 189.179 318.196 188.432C319.092 187.685 319.54 186.661 319.54 185.36C319.54 184.08 319.103 183.077 318.228 182.352C317.354 181.627 316.052 181.264 314.324 181.264H308.532V202H305.908ZM319.412 202L307.156 190.576H310.74L323.38 202H319.412ZM333.315 202V178.96H335.939V202H333.315ZM334.659 202V199.696H348.739V202H334.659ZM334.659 191.152V188.848H347.587V191.152H334.659ZM334.659 181.264V178.96H348.483V181.264H334.659Z" fill="white"/>
</g>
<g filter="url(#filter2_i_0_1)">
<path d="M6.92 236.216C4.904 236.216 3.296 235.72 2.096 234.728C0.912 233.736 0.216 232.32 0.00800008 230.48H1.928C2.104 231.808 2.608 232.808 3.44 233.48C4.272 234.152 5.424 234.488 6.896 234.488C8.144 234.488 9.08 234.256 9.704 233.792C10.344 233.312 10.664 232.616 10.664 231.704C10.664 230.92 10.448 230.296 10.016 229.832C9.584 229.368 8.912 228.984 8 228.68L5.096 227.672C3.624 227.16 2.536 226.544 1.832 225.824C1.128 225.088 0.776 224.16 0.776 223.04C0.776 222.112 1.008 221.312 1.472 220.64C1.936 219.952 2.592 219.416 3.44 219.032C4.288 218.648 5.272 218.456 6.392 218.456C8.12 218.456 9.504 218.912 10.544 219.824C11.584 220.72 12.184 222 12.344 223.664H10.424C10.216 222.464 9.784 221.584 9.128 221.024C8.488 220.464 7.56 220.184 6.344 220.184C5.192 220.184 4.296 220.416 3.656 220.88C3.016 221.344 2.696 222 2.696 222.848C2.696 223.568 2.92 224.144 3.368 224.576C3.816 225.008 4.512 225.384 5.456 225.704L8.552 226.784C9.896 227.248 10.904 227.88 11.576 228.68C12.248 229.464 12.584 230.464 12.584 231.68C12.584 233.12 12.088 234.24 11.096 235.04C10.12 235.824 8.728 236.216 6.92 236.216ZM20.3216 236V218.72H22.2416V236H20.3216ZM29.0816 236V227.984C29.0816 227.056 28.8496 226.36 28.3856 225.896C27.9216 225.432 27.2336 225.2 26.3216 225.2C25.5216 225.2 24.8096 225.376 24.1856 225.728C23.5776 226.08 23.0976 226.568 22.7456 227.192C22.4096 227.816 22.2416 228.544 22.2416 229.376L21.9296 226.472C22.3456 225.56 22.9776 224.84 23.8256 224.312C24.6896 223.784 25.6656 223.52 26.7536 223.52C28.0336 223.52 29.0576 223.888 29.8256 224.624C30.6096 225.344 31.0016 226.296 31.0016 227.48V236H29.0816ZM39.4887 236V223.76H41.4087V236H39.4887ZM39.3447 220.976V218.72H41.5527V220.976H39.3447ZM50.0544 236V223.76H51.8544V226.88H51.9744V236H50.0544ZM51.9744 229.616L51.6624 226.712C51.9504 225.672 52.4624 224.88 53.1984 224.336C53.9344 223.792 54.7824 223.52 55.7424 223.52C56.1424 223.52 56.4144 223.552 56.5584 223.616V225.464C56.4784 225.432 56.3664 225.416 56.2224 225.416C56.0784 225.4 55.9024 225.392 55.6944 225.392C54.4784 225.392 53.5504 225.76 52.9104 226.496C52.2864 227.216 51.9744 228.256 51.9744 229.616ZM71.0148 236C70.9508 235.728 70.9028 235.416 70.8708 235.064C70.8548 234.712 70.8468 234.264 70.8468 233.72H70.7268V227.864C70.7268 226.936 70.5108 226.256 70.0788 225.824C69.6628 225.376 68.9828 225.152 68.0388 225.152C67.1108 225.152 66.3668 225.344 65.8068 225.728C65.2628 226.096 64.9588 226.624 64.8948 227.312H63.0468C63.1268 226.128 63.6228 225.2 64.5348 224.528C65.4468 223.856 66.6388 223.52 68.1108 223.52C69.6308 223.52 70.7588 223.88 71.4948 224.6C72.2308 225.32 72.5988 226.4 72.5988 227.84V233.72C72.5988 234.072 72.6228 234.44 72.6708 234.824C72.7188 235.192 72.7828 235.584 72.8628 236H71.0148ZM66.8148 236.24C65.5508 236.24 64.5428 235.936 63.7908 235.328C63.0548 234.704 62.6868 233.856 62.6868 232.784C62.6868 231.712 63.0548 230.88 63.7908 230.288C64.5268 229.696 65.5988 229.28 67.0068 229.04L71.2788 228.32V229.904L67.2948 230.528C66.3988 230.672 65.7188 230.912 65.2548 231.248C64.7908 231.584 64.5588 232.072 64.5588 232.712C64.5588 233.336 64.7668 233.808 65.1828 234.128C65.6148 234.448 66.2468 234.608 67.0788 234.608C68.1508 234.608 69.0228 234.368 69.6948 233.888C70.3828 233.392 70.7268 232.752 70.7268 231.968L71.0388 233.672C70.7828 234.488 70.2788 235.12 69.5268 235.568C68.7908 236.016 67.8868 236.24 66.8148 236.24ZM90.8484 236V218.72H97.2324C98.4644 218.72 99.5124 218.92 100.376 219.32C101.24 219.72 101.896 220.28 102.344 221C102.808 221.704 103.04 222.544 103.04 223.52C103.04 224.496 102.808 225.352 102.344 226.088C101.896 226.808 101.24 227.376 100.376 227.792C99.5124 228.192 98.4644 228.392 97.2324 228.392H92.2884V226.664H97.1604C98.4404 226.664 99.4084 226.384 100.064 225.824C100.736 225.264 101.072 224.496 101.072 223.52C101.072 222.56 100.744 221.808 100.088 221.264C99.4324 220.72 98.4564 220.448 97.1604 220.448H92.8164V236H90.8484ZM100.976 236L91.7844 227.432H94.4724L103.952 236H100.976ZM118.368 236C118.304 235.728 118.256 235.416 118.224 235.064C118.208 234.712 118.2 234.264 118.2 233.72H118.08V227.864C118.08 226.936 117.864 226.256 117.432 225.824C117.016 225.376 116.336 225.152 115.392 225.152C114.464 225.152 113.72 225.344 113.16 225.728C112.616 226.096 112.312 226.624 112.248 227.312H110.4C110.48 226.128 110.976 225.2 111.888 224.528C112.8 223.856 113.992 223.52 115.464 223.52C116.984 223.52 118.112 223.88 118.848 224.6C119.584 225.32 119.952 226.4 119.952 227.84V233.72C119.952 234.072 119.976 234.44 120.024 234.824C120.072 235.192 120.136 235.584 120.216 236H118.368ZM114.168 236.24C112.904 236.24 111.896 235.936 111.144 235.328C110.408 234.704 110.04 233.856 110.04 232.784C110.04 231.712 110.408 230.88 111.144 230.288C111.88 229.696 112.952 229.28 114.36 229.04L118.632 228.32V229.904L114.648 230.528C113.752 230.672 113.072 230.912 112.608 231.248C112.144 231.584 111.912 232.072 111.912 232.712C111.912 233.336 112.12 233.808 112.536 234.128C112.968 234.448 113.6 234.608 114.432 234.608C115.504 234.608 116.376 234.368 117.048 233.888C117.736 233.392 118.08 232.752 118.08 231.968L118.392 233.672C118.136 234.488 117.632 235.12 116.88 235.568C116.144 236.016 115.24 236.24 114.168 236.24ZM128.453 236V223.76H130.373V236H128.453ZM128.309 220.976V218.72H130.517V220.976H128.309ZM143.82 236.24C142.7 236.24 141.7 235.968 140.82 235.424C139.956 234.864 139.268 234.104 138.756 233.144C138.26 232.168 138.012 231.064 138.012 229.832C138.012 228.6 138.26 227.512 138.756 226.568C139.268 225.624 139.956 224.88 140.82 224.336C141.7 223.792 142.692 223.52 143.796 223.52C144.708 223.52 145.524 223.696 146.244 224.048C146.98 224.4 147.58 224.904 148.044 225.56C148.524 226.2 148.828 226.952 148.956 227.816H147.18C147.02 227.032 146.652 226.392 146.076 225.896C145.5 225.4 144.756 225.152 143.844 225.152C143.06 225.152 142.38 225.344 141.804 225.728C141.228 226.112 140.78 226.656 140.46 227.36C140.14 228.064 139.98 228.888 139.98 229.832C139.98 230.776 140.14 231.608 140.46 232.328C140.78 233.048 141.228 233.608 141.804 234.008C142.396 234.408 143.084 234.608 143.868 234.608C144.748 234.608 145.484 234.368 146.076 233.888C146.668 233.392 147.044 232.752 147.204 231.968H148.98C148.836 232.816 148.516 233.568 148.02 234.224C147.54 234.864 146.94 235.36 146.22 235.712C145.5 236.064 144.7 236.24 143.82 236.24ZM156.568 236V218.72H158.488V236H156.568ZM165.328 236V227.984C165.328 227.056 165.096 226.36 164.632 225.896C164.168 225.432 163.48 225.2 162.568 225.2C161.768 225.2 161.056 225.376 160.432 225.728C159.824 226.08 159.344 226.568 158.992 227.192C158.656 227.816 158.488 228.544 158.488 229.376L158.176 226.472C158.592 225.56 159.224 224.84 160.072 224.312C160.936 223.784 161.912 223.52 163 223.52C164.28 223.52 165.304 223.888 166.072 224.624C166.856 225.344 167.248 226.296 167.248 227.48V236H165.328ZM185.484 239.12V217.04H187.164V239.12H185.484ZM211.557 236.216C209.541 236.216 207.933 235.72 206.733 234.728C205.549 233.736 204.853 232.32 204.645 230.48H206.565C206.741 231.808 207.245 232.808 208.077 233.48C208.909 234.152 210.061 234.488 211.533 234.488C212.781 234.488 213.717 234.256 214.341 233.792C214.981 233.312 215.301 232.616 215.301 231.704C215.301 230.92 215.085 230.296 214.653 229.832C214.221 229.368 213.549 228.984 212.637 228.68L209.733 227.672C208.261 227.16 207.173 226.544 206.469 225.824C205.765 225.088 205.413 224.16 205.413 223.04C205.413 222.112 205.645 221.312 206.109 220.64C206.573 219.952 207.229 219.416 208.077 219.032C208.925 218.648 209.909 218.456 211.029 218.456C212.757 218.456 214.141 218.912 215.181 219.824C216.221 220.72 216.821 222 216.981 223.664H215.061C214.853 222.464 214.421 221.584 213.765 221.024C213.125 220.464 212.197 220.184 210.981 220.184C209.829 220.184 208.933 220.416 208.293 220.88C207.653 221.344 207.333 222 207.333 222.848C207.333 223.568 207.557 224.144 208.005 224.576C208.453 225.008 209.149 225.384 210.093 225.704L213.189 226.784C214.533 227.248 215.541 227.88 216.213 228.68C216.885 229.464 217.221 230.464 217.221 231.68C217.221 233.12 216.725 234.24 215.733 235.04C214.757 235.824 213.365 236.216 211.557 236.216ZM224.959 236V218.72H226.879V236H224.959ZM233.719 236V227.984C233.719 227.056 233.487 226.36 233.023 225.896C232.559 225.432 231.871 225.2 230.959 225.2C230.159 225.2 229.447 225.376 228.823 225.728C228.215 226.08 227.735 226.568 227.383 227.192C227.047 227.816 226.879 228.544 226.879 229.376L226.567 226.472C226.983 225.56 227.615 224.84 228.463 224.312C229.327 223.784 230.303 223.52 231.391 223.52C232.671 223.52 233.695 223.888 234.463 224.624C235.247 225.344 235.639 226.296 235.639 227.48V236H233.719ZM244.126 236V223.76H246.046V236H244.126ZM243.982 220.976V218.72H246.19V220.976H243.982ZM254.692 236V223.76H256.492V226.88H256.612V236H254.692ZM256.612 229.616L256.3 226.712C256.588 225.672 257.1 224.88 257.836 224.336C258.572 223.792 259.42 223.52 260.38 223.52C260.78 223.52 261.052 223.552 261.196 223.616V225.464C261.116 225.432 261.004 225.416 260.86 225.416C260.716 225.4 260.54 225.392 260.332 225.392C259.116 225.392 258.188 225.76 257.548 226.496C256.924 227.216 256.612 228.256 256.612 229.616ZM275.652 236C275.588 235.728 275.54 235.416 275.508 235.064C275.492 234.712 275.484 234.264 275.484 233.72H275.364V227.864C275.364 226.936 275.148 226.256 274.716 225.824C274.3 225.376 273.62 225.152 272.676 225.152C271.748 225.152 271.004 225.344 270.444 225.728C269.9 226.096 269.596 226.624 269.532 227.312H267.684C267.764 226.128 268.26 225.2 269.172 224.528C270.084 223.856 271.276 223.52 272.748 223.52C274.268 223.52 275.396 223.88 276.132 224.6C276.868 225.32 277.236 226.4 277.236 227.84V233.72C277.236 234.072 277.26 234.44 277.308 234.824C277.356 235.192 277.42 235.584 277.5 236H275.652ZM271.452 236.24C270.188 236.24 269.18 235.936 268.428 235.328C267.692 234.704 267.324 233.856 267.324 232.784C267.324 231.712 267.692 230.88 268.428 230.288C269.164 229.696 270.236 229.28 271.644 229.04L275.916 228.32V229.904L271.932 230.528C271.036 230.672 270.356 230.912 269.892 231.248C269.428 231.584 269.196 232.072 269.196 232.712C269.196 233.336 269.404 233.808 269.82 234.128C270.252 234.448 270.884 234.608 271.716 234.608C272.788 234.608 273.66 234.368 274.332 233.888C275.02 233.392 275.364 232.752 275.364 231.968L275.676 233.672C275.42 234.488 274.916 235.12 274.164 235.568C273.428 236.016 272.524 236.24 271.452 236.24ZM295.486 236V218.72H297.454V236H295.486ZM307.054 236V218.72H309.022V236H307.054ZM296.494 226.136H307.918V227.864H296.494V226.136ZM325.326 236C325.262 235.728 325.214 235.416 325.182 235.064C325.166 234.712 325.158 234.264 325.158 233.72H325.038V227.864C325.038 226.936 324.822 226.256 324.39 225.824C323.974 225.376 323.294 225.152 322.35 225.152C321.422 225.152 320.678 225.344 320.118 225.728C319.574 226.096 319.27 226.624 319.206 227.312H317.358C317.438 226.128 317.934 225.2 318.846 224.528C319.758 223.856 320.95 223.52 322.422 223.52C323.942 223.52 325.07 223.88 325.806 224.6C326.542 225.32 326.91 226.4 326.91 227.84V233.72C326.91 234.072 326.934 234.44 326.982 234.824C327.03 235.192 327.094 235.584 327.174 236H325.326ZM321.126 236.24C319.862 236.24 318.854 235.936 318.102 235.328C317.366 234.704 316.998 233.856 316.998 232.784C316.998 231.712 317.366 230.88 318.102 230.288C318.838 229.696 319.91 229.28 321.318 229.04L325.59 228.32V229.904L321.606 230.528C320.71 230.672 320.03 230.912 319.566 231.248C319.102 231.584 318.87 232.072 318.87 232.712C318.87 233.336 319.078 233.808 319.494 234.128C319.926 234.448 320.558 234.608 321.39 234.608C322.462 234.608 323.334 234.368 324.006 233.888C324.694 233.392 325.038 232.752 325.038 231.968L325.35 233.672C325.094 234.488 324.59 235.12 323.838 235.568C323.102 236.016 322.198 236.24 321.126 236.24ZM335.411 236V223.76H337.211V226.88H337.331V236H335.411ZM337.331 229.616L337.019 226.712C337.307 225.672 337.819 224.88 338.555 224.336C339.291 223.792 340.139 223.52 341.099 223.52C341.499 223.52 341.771 223.552 341.915 223.616V225.464C341.835 225.432 341.723 225.416 341.579 225.416C341.435 225.4 341.259 225.392 341.051 225.392C339.835 225.392 338.907 225.76 338.267 226.496C337.643 227.216 337.331 228.256 337.331 229.616ZM356.371 236C356.307 235.728 356.259 235.416 356.227 235.064C356.211 234.712 356.203 234.264 356.203 233.72H356.083V227.864C356.083 226.936 355.867 226.256 355.435 225.824C355.019 225.376 354.339 225.152 353.395 225.152C352.467 225.152 351.723 225.344 351.163 225.728C350.619 226.096 350.315 226.624 350.251 227.312H348.403C348.483 226.128 348.979 225.2 349.891 224.528C350.803 223.856 351.995 223.52 353.467 223.52C354.987 223.52 356.115 223.88 356.851 224.6C357.587 225.32 357.955 226.4 357.955 227.84V233.72C357.955 234.072 357.979 234.44 358.027 234.824C358.075 235.192 358.139 235.584 358.219 236H356.371ZM352.171 236.24C350.907 236.24 349.899 235.936 349.147 235.328C348.411 234.704 348.043 233.856 348.043 232.784C348.043 231.712 348.411 230.88 349.147 230.288C349.883 229.696 350.955 229.28 352.363 229.04L356.635 228.32V229.904L352.651 230.528C351.755 230.672 351.075 230.912 350.611 231.248C350.147 231.584 349.915 232.072 349.915 232.712C349.915 233.336 350.123 233.808 350.539 234.128C350.971 234.448 351.603 234.608 352.435 234.608C353.507 234.608 354.379 234.368 355.051 233.888C355.739 233.392 356.083 232.752 356.083 231.968L356.395 233.672C356.139 234.488 355.635 235.12 354.883 235.568C354.147 236.016 353.243 236.24 352.171 236.24ZM366.456 236V223.76H368.256V226.88H368.376V236H366.456ZM368.376 229.616L368.064 226.712C368.352 225.672 368.864 224.88 369.6 224.336C370.336 223.792 371.184 223.52 372.144 223.52C372.544 223.52 372.816 223.552 372.96 223.616V225.464C372.88 225.432 372.768 225.416 372.624 225.416C372.48 225.4 372.304 225.392 372.096 225.392C370.88 225.392 369.952 225.76 369.312 226.496C368.688 227.216 368.376 228.256 368.376 229.616ZM380.045 236V223.76H381.965V236H380.045ZM379.901 220.976V218.72H382.109V220.976H379.901Z" fill="white"/>
</g>
<defs>
<filter id="filter0_i_0_1" x="133" y="0" width="117" height="171" filterUnits="userSpaceOnUse" color-interpolation-filters="sRGB">
<feFlood flood-opacity="0" result="BackgroundImageFix"/>
<feBlend mode="normal" in="SourceGraphic" in2="BackgroundImageFix" result="shape"/>
<feColorMatrix in="SourceAlpha" type="matrix" values="0 0 0 0 0 0 0 0 0 0 0 0 0 0 0 0 0 0 127 0" result="hardAlpha"/>
<feOffset dy="10"/>
<feGaussianBlur stdDeviation="5"/>
<feComposite in2="hardAlpha" operator="arithmetic" k2="-1" k3="1"/>
<feColorMatrix type="matrix" values="0 0 0 0 0 0 0 0 0 0 0 0 0 0 0 0 0 0 0.25 0"/>
<feBlend mode="normal" in2="shape" result="effect1_innerShadow_0_1"/>
</filter>
<filter id="filter1_i_0_1" x="32.152" y="178.64" width="316.586" height="25.68" filterUnits="userSpaceOnUse" color-interpolation-filters="sRGB">
<feFlood flood-opacity="0" result="BackgroundImageFix"/>
<feBlend mode="normal" in="SourceGraphic" in2="BackgroundImageFix" result="shape"/>
<feColorMatrix in="SourceAlpha" type="matrix" values="0 0 0 0 0 0 0 0 0 0 0 0 0 0 0 0 0 0 127 0" result="hardAlpha"/>
<feOffset dy="2"/>
<feGaussianBlur stdDeviation="1"/>
<feComposite in2="hardAlpha" operator="arithmetic" k2="-1" k3="1"/>
<feColorMatrix type="matrix" values="0 0 0 0 0 0 0 0 0 0 0 0 0 0 0 0 0 0 0.25 0"/>
<feBlend mode="normal" in2="shape" result="effect1_innerShadow_0_1"/>
</filter>
<filter id="filter2_i_0_1" x="0.00799561" y="217.04" width="382.101" height="26.08" filterUnits="userSpaceOnUse" color-interpolation-filters="sRGB">
<feFlood flood-opacity="0" result="BackgroundImageFix"/>
<feBlend mode="normal" in="SourceGraphic" in2="BackgroundImageFix" result="shape"/>
<feColorMatrix in="SourceAlpha" type="matrix" values="0 0 0 0 0 0 0 0 0 0 0 0 0 0 0 0 0 0 127 0" result="hardAlpha"/>
<feOffset dy="4"/>
<feGaussianBlur stdDeviation="2"/>
<feComposite in2="hardAlpha" operator="arithmetic" k2="-1" k3="1"/>
<feColorMatrix type="matrix" values="0 0 0 0 0 0 0 0 0 0 0 0 0 0 0 0 0 0 0.25 0"/>
<feBlend mode="normal" in2="shape" result="effect1_innerShadow_0_1"/>
</filter>
</defs>
</svg>
